<?xml version="1.0" ?><svg style="enable-background:new 0 0 512 512;" version="1.1" viewBox="0 0 512 512" xml:space="preserve" xmlns="http://www.w3.org/2000/svg" xmlns:xlink="http://www.w3.org/1999/xlink"><style type="text/css">
	.st0{display:none;}
	.st1{display:inline;}
	.st2{fill:none;stroke:#B3B3B3;stroke-miterlimit:10;}
	.st3{fill:none;stroke:#ED1C24;stroke-miterlimit:10;}
	.st4{fill:#F9C04A;}
	.st5{fill:#FFFFFF;stroke:#000000;stroke-width:10;stroke-linecap:round;stroke-linejoin:round;stroke-miterlimit:10;}
	.st6{fill:#DEF6FC;}
	.st7{fill:#FFDA9F;}
	.st8{fill:#FFFFFF;}
	.st9{fill:#FF5751;}
	.st10{fill:#FF908A;}
	.st11{fill:#133260;}
	.st12{fill:#7782BB;}
	.st13{fill:#96A5D6;}
	.st14{fill:#FF5741;}
	.st15{fill:#43527A;}
	.st16{fill:#5E7296;}
	.st17{fill:none;stroke:#133260;stroke-width:9;stroke-linecap:round;stroke-linejoin:round;stroke-miterlimit:10;}
	.st18{fill:#83D689;}
	.st19{fill:#B5F4B8;}
	.st20{fill:#9BC5FF;}
	.st21{fill:#B8D8FF;}
	.st22{fill:#F24133;}
	.st23{fill:#589FFF;}
	.st24{fill:#7180BC;}
	.st25{fill:#93A3D8;}
	.st26{fill:#FF8103;}
	.st27{fill:#FF9D4D;}
	.st28{fill:#BC8D66;}
	.st29{fill:#CEA282;}
	.st30{fill:#FFDDA1;}
	.st31{fill:#FFF1DC;}
	.st32{fill:#7F6674;}
	.st33{fill:#937A89;}
	.st34{fill:#04398E;}
	.st35{fill:#A6D1FF;}
	.st36{fill:#EAA62D;}
	.st37{fill:#C5DFFF;}
	.st38{fill:#D6A47F;}
	.st39{fill:#99A4D6;}
</style><g class="st0" id="Layer_31"><g class="st1"><g><g><ellipse class="st2" cx="256" cy="256" rx="248.1" ry="248.3"/><path class="st2" d="M398.8,504.5H113.2c-18.8,0-34.1-15.3-34.1-34.1V41.6c0-18.8,15.3-34.1,34.1-34.1h285.5      c18.8,0,34.1,15.3,34.1,34.1v428.9C432.9,489.3,417.6,504.5,398.8,504.5z"/><path class="st2" d="M7.9,399.8V112.2c0-16.4,13.3-29.8,29.8-29.8h436.7c16.4,0,29.8,13.3,29.8,29.8v287.6      c0,16.4-13.3,29.8-29.8,29.8H37.6C21.2,429.6,7.9,416.2,7.9,399.8z"/><path class="st2" d="M440.4,469.9H71.6c-16.4,0-29.8-13.3-29.8-29.8V71.9c0-16.4,13.3-29.8,29.8-29.8h368.8      c16.4,0,29.8,13.3,29.8,29.8v368.2C470.2,456.5,456.8,469.9,440.4,469.9z"/></g><rect class="st3" height="497" transform="matrix(-1.836970e-16 1 -1 -1.836970e-16 512 5.684342e-14)" width="497" x="7.5" y="7.5"/></g></g></g><g id="Layer_32"><g><g><g><g><g><path class="st15" d="M142.7,455.9L142.7,455.9c-14.3,3.5-28.7-5.1-32.2-19.4l-33.8-136l66.1-16.4l19.7,142.4        C164.5,439.9,155.9,452.6,142.7,455.9z"/><g><circle class="st4" cx="445.5" cy="256" r="61.9"/><g><path class="st4" d="M83.5,301H21.2c-9.2,0-16.6-7.4-16.6-16.6v-56.7c0-9.2,7.4-16.6,16.6-16.6h62.4V301z"/><path class="st6" d="M439.4,442L161.6,327.5v-143L439.4,69.9c7-2.9,14.7,2.3,14.7,9.9v352.4          C454.1,439.8,446.4,444.9,439.4,442z"/><path class="st8" d="M186.9,209.8L454.1,99.7V79.8c0-7.6-7.7-12.7-14.7-9.9L161.6,184.5v143l25.4,10.5V209.8z"/><path class="st14" d="M161.6,327.5H62.4c-14.6,0-26.4-11.8-26.4-26.4v-90.2c0-14.6,11.8-26.4,26.4-26.4h99.1V327.5z"/><path class="st10" d="M61.3,301.1v-90.2c0-14.6,11.8-26.4,26.4-26.4H62.4c-14.6,0-26.4,11.8-26.4,26.4v90.2          c0,14.6,11.8,26.4,26.4,26.4h25.3C73.2,327.5,61.3,315.7,61.3,301.1z"/></g></g></g><path class="st6" d="M151.8,348.3h-16.6c-6.7,0-11.6,6.3-10,12.8l8.7,35c1.1,4.6,5.3,7.8,10,7.8h15.6L151.8,348.3z"/></g></g><path class="st14" d="M445.5,464.9L445.5,464.9c-12.5,0-22.6-10.1-22.6-22.6V69.7c0-12.5,10.1-22.6,22.6-22.6h0     c12.5,0,22.6,10.1,22.6,22.6v372.5C468.2,454.8,458,464.9,445.5,464.9z"/></g><g><path class="st11" d="M57.4,221.2c0,2.5,2,4.6,4.6,4.6h73.8c2.5,0,4.6-2,4.6-4.6c0-2.5-2-4.6-4.6-4.6H61.9     C59.4,216.6,57.4,218.7,57.4,221.2z"/><path class="st11" d="M135.7,251.4H61.9c-2.5,0-4.6,2-4.6,4.6s2,4.6,4.6,4.6h73.8c2.5,0,4.6-2,4.6-4.6S138.2,251.4,135.7,251.4z"/><path class="st11" d="M135.7,286.3H61.9c-2.5,0-4.6,2-4.6,4.6s2,4.6,4.6,4.6h73.8c2.5,0,4.6-2,4.6-4.6S138.2,286.3,135.7,286.3z"/><path class="st11" d="M472.7,195.3V69.7c0-15-12.2-27.2-27.2-27.2s-27.2,12.2-27.2,27.2v4L160.7,179.9H62.4     c-15.6,0-28.5,11.5-30.7,26.5H21.2C9.5,206.5,0,216,0,227.6v56.7c0,11.7,9.5,21.2,21.2,21.2h10.6c2.2,15,15.1,26.5,30.7,26.5     h17.5l26.2,105.5c3.5,14.2,16.3,23.6,30.2,23.6c2.5,0,5-0.3,7.5-0.9c15.5-3.8,25.5-18.7,23.3-34.5l-3.1-22.5c0,0,0-0.1,0-0.1     l-7.7-55.4c0,0,0-0.1,0-0.1l-2.2-15.5h6.5l257.7,106.2v4c0,15,12.2,27.2,27.2,27.2s27.2-12.2,27.2-27.2V316.7     c24-10.7,39.3-34.2,39.3-60.7S496.7,206,472.7,195.3z M31.5,296.4H21.2c-6.7,0-12.1-5.4-12.1-12.1v-56.7     c0-6.7,5.4-12.1,12.1-12.1h10.3V296.4z M158.1,427c1.6,11.2-5.5,21.7-16.5,24.4c-11.8,2.9-23.8-4.3-26.7-16.1L89.3,332.1H145     l1.6,11.7h-11.4c-4.6,0-8.9,2.1-11.7,5.7c-2.8,3.6-3.8,8.3-2.7,12.7l8.7,35c1.6,6.6,7.6,11.3,14.4,11.3h11.6L158.1,427z      M154.3,399.3h-10.4c-2.6,0-4.9-1.8-5.6-4.4l-8.7-35c-0.4-1.7,0-3.5,1-4.9c1.1-1.4,2.7-2.2,4.5-2.2h12.6L154.3,399.3z M157,322.9     H83.5c0,0-0.1,0-0.1,0h-21c-12.1,0-21.9-9.8-21.9-21.9v-90.2c0-12.1,9.8-21.9,21.9-21.9H157V322.9z M418.3,428.4l-252.2-104     V187.5l252.2-104V428.4z M463.6,198.2c0,0.1,0,0.2,0,0.2v115.1c0,0.1,0,0.2,0,0.2v128.5c0,10-8.1,18.1-18.1,18.1     s-18.1-8.1-18.1-18.1v-6.9c0-0.1,0-0.1,0-0.2V76.8c0-0.1,0-0.1,0-0.2v-6.9c0-10,8.1-18.1,18.1-18.1s18.1,8.1,18.1,18.1V198.2z      M472.7,306.5V205.5c18.5,9.9,30.2,29.1,30.2,50.5S491.2,296.6,472.7,306.5z"/></g></g></g></svg>